<svg data-v-fde0c5aa="" xmlns="http://www.w3.org/2000/svg" viewBox="0 0 300 300" class="iconLeft"><!----><defs data-v-fde0c5aa=""><linearGradient data-v-fde0c5aa="" gradientTransform="rotate(25)" id="2f22ff2d-d036-4d49-bc87-9467142903b4" x1="0%" y1="0%" x2="100%" y2="0%"><stop data-v-fde0c5aa="" offset="0%" stop-color="#000A68" stop-opacity="1"></stop><stop data-v-fde0c5aa="" offset="100%" stop-color="#00C4EE" stop-opacity="1"></stop></linearGradient></defs><rect data-v-fde0c5aa="" fill="url(#2f22ff2d-d036-4d49-bc87-9467142903b4)" x="0" y="0" width="300px" height="300px" class="logo-background-square"></rect><defs data-v-fde0c5aa=""><!----></defs><g data-v-fde0c5aa="" id="dfe21e37-eb73-4633-809f-bdb96640ac7d" fill="#ffffff" transform="matrix(3.722801282481437,0,0,3.722801282481437,102.59995952554742,120.16174644278891)"><path d="M7.41 11.19L6.83 9.67L3.09 9.67Q2.86 10.25 2.69 10.69Q2.52 11.13 2.42 11.45Q2.31 11.77 2.27 12.00Q2.23 12.22 2.23 12.36L2.23 12.36Q2.23 12.75 2.48 12.90Q2.73 13.05 3.32 13.05L3.32 13.05L3.32 13.58L-0.08 13.58L-0.08 13.05Q0.24 13.01 0.47 12.94Q0.70 12.87 0.88 12.74Q1.05 12.61 1.18 12.41Q1.32 12.21 1.44 11.91L1.44 11.91L5.08 2.80L5.68 2.80L8.86 10.70Q9.18 11.48 9.42 11.95Q9.66 12.42 9.88 12.66Q10.11 12.89 10.37 12.96Q10.63 13.03 10.99 13.03L10.99 13.03L10.99 13.58L6.43 13.58L6.43 13.03Q7.17 13.03 7.45 12.89Q7.73 12.75 7.73 12.43L7.73 12.43Q7.73 12.29 7.71 12.17Q7.70 12.05 7.67 11.91Q7.63 11.77 7.57 11.60Q7.50 11.42 7.41 11.19L7.41 11.19ZM5.01 4.84L3.37 8.97L6.57 8.97L5.01 4.84ZM12.29 13.09L12.01 13.58L11.70 13.58L11.70 11.17L12.05 11.17Q12.60 13.15 14.04 13.15L14.04 13.15Q14.60 13.15 14.93 12.87Q15.26 12.60 15.26 12.04L15.26 12.04Q15.26 11.83 15.20 11.68Q15.13 11.54 14.96 11.38Q14.78 11.21 14.47 11.00Q14.15 10.79 13.64 10.47L13.64 10.47Q13.16 10.18 12.81 9.93Q12.46 9.67 12.22 9.41Q11.98 9.16 11.87 8.86Q11.75 8.57 11.75 8.18L11.75 8.18Q11.75 7.70 11.91 7.30Q12.07 6.90 12.35 6.62Q12.63 6.34 13.01 6.18Q13.38 6.02 13.83 6.02L13.83 6.02Q14.21 6.02 14.62 6.14Q15.02 6.26 15.33 6.45L15.33 6.45L15.61 6.16L15.88 6.16L15.88 8.18L15.51 8.18Q15.20 7.32 14.84 6.96Q14.48 6.59 13.94 6.59L13.94 6.59Q13.47 6.59 13.18 6.85Q12.89 7.10 12.89 7.55L12.89 7.55Q12.89 7.78 12.97 7.96Q13.05 8.13 13.22 8.30Q13.38 8.47 13.64 8.64Q13.90 8.82 14.27 9.04L14.27 9.04Q14.87 9.42 15.29 9.72Q15.72 10.01 15.99 10.30Q16.25 10.58 16.38 10.89Q16.51 11.20 16.51 11.59L16.51 11.59Q16.51 12.59 15.86 13.15Q15.22 13.72 14.17 13.72L14.17 13.72Q13.08 13.72 12.29 13.09L12.29 13.09ZM18.56 7.04L17.72 7.04L17.72 6.52Q18.47 6.09 18.89 5.66Q19.31 5.22 19.53 4.62L19.53 4.62L19.94 4.62L19.94 6.38L21.81 6.38L21.81 7.04L19.94 7.04L19.94 11.30Q19.94 11.79 19.99 12.12Q20.03 12.46 20.15 12.66Q20.26 12.87 20.44 12.95Q20.62 13.03 20.90 13.03L20.90 13.03Q21.25 13.03 21.50 12.89Q21.74 12.74 21.98 12.39L21.98 12.39L22.33 12.66Q22.13 13.17 21.65 13.45Q21.17 13.72 20.45 13.72L20.45 13.72Q19.53 13.72 19.05 13.28Q18.56 12.84 18.56 12.01L18.56 12.01L18.56 7.04ZM25.56 10.88L25.56 11.35Q25.56 11.93 25.59 12.26Q25.62 12.60 25.74 12.78Q25.86 12.95 26.08 13.01Q26.31 13.06 26.71 13.09L26.71 13.09L26.71 13.58L22.99 13.58L22.99 13.09Q23.39 13.08 23.63 13.01Q23.87 12.95 24.00 12.78Q24.12 12.61 24.16 12.30Q24.19 11.98 24.19 11.45L24.19 11.45L24.19 9.81Q24.19 8.86 24.17 8.33Q24.15 7.80 24.03 7.55Q23.91 7.29 23.66 7.25Q23.41 7.20 22.96 7.20L22.96 7.20L22.96 6.71L25.41 6.17L25.61 7.91L25.66 7.91Q25.84 7.49 26.12 7.14Q26.39 6.79 26.71 6.54Q27.03 6.30 27.38 6.16Q27.73 6.02 28.10 6.02L28.10 6.02Q28.55 6.02 28.81 6.24Q29.06 6.45 29.06 6.82L29.06 6.82Q29.06 7.15 28.85 7.34Q28.64 7.53 28.25 7.53L28.25 7.53Q28.03 7.53 27.87 7.48Q27.72 7.42 27.60 7.36Q27.48 7.29 27.38 7.24Q27.27 7.18 27.15 7.18L27.15 7.18Q26.77 7.18 26.39 7.67Q26.01 8.15 25.80 8.89L25.80 8.89Q25.69 9.30 25.63 9.81Q25.56 10.32 25.56 10.88L25.56 10.88ZM32.33 6.02L32.33 11.35Q32.33 11.90 32.38 12.23Q32.42 12.56 32.56 12.75Q32.70 12.94 32.96 13.01Q33.21 13.08 33.63 13.09L33.63 13.09L33.63 13.58L29.61 13.58L29.61 13.09Q30.03 13.08 30.30 13.00Q30.56 12.92 30.71 12.75Q30.86 12.57 30.91 12.26Q30.95 11.94 30.95 11.45L30.95 11.45L30.95 9.66Q30.95 8.85 30.93 8.32Q30.91 7.80 30.86 7.60L30.86 7.60Q30.79 7.28 30.53 7.16Q30.28 7.04 29.58 7.04L29.58 7.04L29.58 6.55L32.33 6.02ZM30.72 3.18L30.72 3.18Q30.72 2.81 30.97 2.56Q31.22 2.31 31.58 2.31L31.58 2.31Q31.95 2.31 32.20 2.56Q32.45 2.81 32.45 3.18L32.45 3.18Q32.45 3.54 32.20 3.79Q31.95 4.05 31.58 4.05L31.58 4.05Q31.22 4.05 30.97 3.79Q30.72 3.54 30.72 3.18ZM38.44 9.04L39.40 7.81Q39.73 7.39 39.73 7.10L39.73 7.10Q39.73 6.65 38.91 6.65L38.91 6.65L38.91 6.16L41.97 6.16L41.97 6.65Q41.72 6.65 41.52 6.71Q41.31 6.76 41.12 6.89Q40.92 7.01 40.72 7.23Q40.52 7.45 40.26 7.77L40.26 7.77L38.82 9.60L40.68 12.05Q41.12 12.63 41.49 12.86Q41.86 13.09 42.28 13.09L42.28 13.09L42.28 13.58L38.56 13.58L38.56 13.09Q39.06 13.09 39.26 13.01Q39.45 12.94 39.45 12.71L39.45 12.71Q39.45 12.61 39.33 12.43Q39.21 12.24 38.93 11.87L38.93 11.87L37.95 10.61L36.76 12.12Q36.55 12.38 36.55 12.63L36.55 12.63Q36.55 12.82 36.72 12.96Q36.89 13.09 37.25 13.09L37.25 13.09L37.25 13.58L34.05 13.58L34.05 13.09Q34.37 13.09 34.62 13.03Q34.87 12.98 35.11 12.84Q35.34 12.70 35.58 12.45Q35.83 12.19 36.13 11.82L36.13 11.82L37.56 10.07L35.70 7.42Q35.38 6.97 35.11 6.81Q34.85 6.65 34.44 6.65L34.44 6.65L34.44 6.16L37.88 6.16L37.88 6.65Q37.51 6.65 37.34 6.74Q37.17 6.83 37.17 6.99L37.17 6.99Q37.17 7.20 37.44 7.57L37.44 7.57L38.44 9.04Z"></path></g><defs data-v-fde0c5aa=""><!----></defs><g data-v-fde0c5aa="" id="c56fd535-f2e8-4445-abe1-c4f8c3fb7f44" stroke="none" fill="#ffffff" transform="matrix(0.651403659197691,0,0,0.651403659197691,31.54282642185158,117.49072212925323)"><g clip-rule="evenodd"><path d="M12.983 10.59l17.018 88.223-5.872-59.049 29.021-1.892-.054-9.883L64.549 1 53.622 18.977z"></path><path d="M59.389 54.548l5.16-53.541-8.74 39.716-19.612 1.045 1.57 20.462-7.766 36.583 12.057-39.899z"></path><path d="M62.8 67.182l.549-10.453-15.979 3.755-.032 11.797-17.337 26.532 21.68-27.616zM65.711 62.394l14.841-4.731 1.509-12.532-15.899 2.095zM72.07 44.502l10.988-1.417 1.581-10.278-8.079-.373L64.549 1l8.43 30.967z"></path><path d="M87.413 31.294l1.256-9.506-9.544-2.694L64.549 1l14.483 22.437-.422 7z"></path></g></g><!----></svg>